# xmcd
#
# Track frame offsets:
#	150
#	11077
#	21878
#	32259
#	44683
#	54585
#	66465
#	78413
#	85950
#	97238
#	107433
#	120518
#	131729
#	141887
#	154376
#	161980
#	175114
#	186633
#	198646
#	211045
#
# Disc length: 2988 seconds
#
# Revision: 0
# Processed by: cddbd v1.5.2PL0 Copyright (c) Steve Scherf et al.
# Submitted via: FairStars CD Ripper 1.80
#
DISCID=240baa14
DTITLE=Various Artist - Let The Good Times Roll cd1
DYEAR=2016
DGENRE=Oldies
TTITLE0=El Pauling And Royal Abbit - Come On Let's Have A Good Time 
TTITLE1=Clarence Henry - Come On And Dance
TTITLE2=Thurston Harris - Over And Over
TTITLE3=Big Joe Turner - Flip, Flop and Fly
TTITLE4=Jimmy Witherspoon - Have A Ball 
TTITLE5=Barrett Strong - Money (That's What I Want) 
TTITLE6=Larry Williams - Bony Moronie
TTITLE7=Bobby Freeman - Big Fat Woman
TTITLE8=Sonny Jackson - My Babe
TTITLE9=Ruth Brown - Jim Dandy
TTITLE10=The Romans - She Don't Wanna Dance
TTITLE11=Bo Diddley - Diddey Wah Diddey
TTITLE12=Ike and Tina Turner - The Groove (Instr.) 
TTITLE13=Eskew Reeder - Green Door
TTITLE14=Baby Washington - Knock Yourself Out 
TTITLE15=Richard Lewis - Hey, Little Girl
TTITLE16=Earl 'Connelly' King - I Get So Happy
TTITLE17=Ray Charles - Mess Around
TTITLE18=Jr. Walker and The All Stars - Brain Washer (Instr.)
TTITLE19=Slim Harpo - I'm A King Bee
EXTD=
EXTT0=
EXTT1=
EXTT2=
EXTT3=
EXTT4=
EXTT5=
EXTT6=
EXTT7=
EXTT8=
EXTT9=
EXTT10=
EXTT11=
EXTT12=
EXTT13=
EXTT14=
EXTT15=
EXTT16=
EXTT17=
EXTT18=
EXTT19=
PLAYORDER=
